<?xml version="1.0" encoding="UTF-8" standalone="no"?><!DOCTYPE svg PUBLIC "-//W3C//DTD SVG 1.1//EN" "http://www.w3.org/Graphics/SVG/1.1/DTD/svg11.dtd"><svg width="100%" height="100%" viewBox="0 0 9846 7384" version="1.1" xmlns="http://www.w3.org/2000/svg" xmlns:xlink="http://www.w3.org/1999/xlink" xml:space="preserve" xmlns:serif="http://www.serif.com/" style="fill-rule:evenodd;clip-rule:evenodd;stroke-linejoin:round;stroke-miterlimit:2;"><g><g><path d="M1395.57,7381.913l-41.297,-485.243l1001.458,-278.756l-433.621,185.838c30.973,-30.973 92.919,-103.243 185.838,-196.162c92.919,-92.919 196.162,-196.162 320.054,-320.054c113.567,-123.892 227.135,-247.783 340.702,-361.351c103.243,-113.567 175.513,-216.811 227.135,-289.081l1558.971,-2271.349l0,578.161l-1682.863,-2374.592c-51.622,-92.919 -134.216,-206.486 -237.459,-340.702c-103.243,-134.216 -196.162,-268.432 -289.081,-392.324c-103.243,-123.892 -165.189,-206.486 -196.162,-247.784l423.297,196.162l-1042.756,-247.784l51.622,-536.864c134.216,10.324 278.756,10.324 433.621,20.649c154.865,10.324 309.729,10.324 454.27,20.649c134.216,10.324 237.459,10.324 299.405,10.324c196.162,0 443.945,-10.324 722.702,-20.649c268.432,-10.324 536.864,-20.649 794.972,-30.973l41.297,588.486l-1197.62,165.189l299.405,-185.838c30.973,51.622 72.27,134.216 123.892,268.432c51.622,134.216 103.243,278.756 175.513,423.297c61.946,144.54 123.892,258.108 175.513,340.702l1218.269,1703.512l-392.324,10.324l1207.945,-1951.295c61.946,-103.243 134.216,-247.783 227.135,-423.297c92.919,-175.513 165.189,-320.054 216.811,-433.621l258.108,258.108l-1166.647,-227.135l51.622,-536.864c175.513,10.324 361.351,20.649 567.837,30.973c206.486,10.324 361.351,20.649 464.594,20.649c216.811,0 464.594,-10.324 763.999,-20.649c289.081,-10.324 567.837,-20.649 836.269,-30.973l41.297,588.486l-1073.728,113.567l619.459,-258.108c-51.622,41.297 -123.892,103.243 -237.459,196.162c-113.567,92.919 -227.135,196.162 -351.027,309.729c-123.892,113.567 -237.459,206.486 -330.378,299.405c-92.919,92.919 -154.865,165.189 -185.838,206.486l-1538.323,2384.916l0,-598.81l1940.971,2725.619c41.297,51.622 113.567,134.216 206.486,247.784c92.919,113.567 196.162,216.811 309.729,330.378c113.567,113.567 196.162,206.486 268.432,278.756l-495.567,-196.162l1156.323,154.865l-51.622,547.189l-1156.323,0c-103.243,0 -247.784,0 -423.297,10.324l-1135.674,41.297l-41.297,-485.243l1042.756,-299.405l-258.108,289.081c-30.973,-92.919 -82.594,-206.486 -144.54,-330.378c-61.946,-123.892 -123.892,-247.783 -196.162,-382c-82.595,-123.892 -144.54,-227.135 -206.486,-309.729l-1393.782,-1971.944l392.324,0l-1393.782,2075.187c-51.622,72.27 -103.243,165.189 -154.865,268.432c-51.622,123.892 -103.243,227.135 -154.865,340.702c-51.622,113.567 -103.243,216.811 -144.54,289.081l-258.108,-237.459l1125.35,154.865l-51.622,547.189l-991.134,0c-92.919,0 -227.135,0 -402.648,10.324c-175.513,10.324 -351.027,10.324 -547.189,20.649c-196.162,10.324 -382,10.324 -547.189,20.649Z" style="fill:#0f8;fill-rule:nonzero;"/></g></g><g><g><path d="M1099.744,5536.064c-246.063,0 -467.017,-30.13 -662.863,-90.39c-195.846,-60.26 -341.475,-120.521 -436.887,-175.759l75.325,-758.275l326.41,30.13l0,230.998c0,15.065 5.022,45.195 10.043,80.347c5.022,40.173 10.043,80.347 15.065,125.542c5.022,45.195 15.065,90.39 25.108,125.542c5.022,40.173 15.065,70.304 20.087,90.39l-90.39,-115.499c85.369,45.195 195.846,85.369 326.41,115.499c125.542,35.152 261.128,55.239 406.757,55.239c205.889,0 371.605,-55.239 492.125,-170.737c120.52,-110.477 180.781,-266.149 180.781,-472.039c0,-140.607 -40.173,-261.128 -125.542,-356.54c-85.369,-95.412 -190.824,-180.781 -321.388,-256.106c-130.564,-75.325 -266.149,-145.629 -411.778,-215.933c-145.629,-70.304 -286.236,-150.651 -416.8,-241.041c-130.564,-85.369 -236.019,-190.824 -321.388,-316.366c-85.369,-125.542 -125.542,-276.193 -125.542,-451.952c0,-200.867 50.217,-371.605 145.629,-507.19c95.412,-135.586 220.954,-241.041 386.67,-311.345c165.716,-70.304 346.496,-105.455 552.386,-105.455c165.716,0 331.431,15.065 507.19,50.217c175.759,35.152 341.475,70.304 502.169,110.477l-70.304,743.21l-291.258,-35.152l0,-210.911c0,-25.108 -5.022,-60.26 -15.065,-110.477c-10.043,-45.195 -20.087,-95.412 -35.152,-155.672c-15.065,-55.239 -25.108,-100.434 -40.174,-145.629l140.607,185.802c-145.629,-75.325 -266.149,-125.542 -366.583,-145.629c-100.434,-15.065 -220.954,-25.108 -356.54,-25.108c-155.672,0 -286.236,45.195 -401.735,140.607c-115.499,100.434 -175.759,241.041 -175.759,426.843c0,135.586 40.173,246.063 125.542,336.453c85.369,95.412 190.824,180.781 326.41,251.084c135.586,75.325 276.193,150.651 421.822,225.976c145.629,75.325 286.236,155.672 421.822,251.084c135.586,95.412 241.041,205.889 326.41,336.453c85.369,130.564 125.542,291.258 125.542,482.082c0,220.954 -55.239,401.735 -160.694,547.364c-105.455,145.629 -251.084,251.084 -431.865,321.388c-180.781,75.325 -381.648,110.477 -602.602,110.477Z" style="fill:#0f8;fill-rule:nonzero;"/></g></g><g><g><path d="M8757.035,5536.225c-346.496,0 -637.754,-80.347 -873.774,-236.019c-236.019,-155.672 -411.778,-371.605 -527.277,-647.798c-115.499,-276.193 -175.759,-592.559 -175.759,-959.142c0,-366.583 60.26,-687.971 175.759,-964.164c115.499,-276.193 291.258,-497.147 527.277,-652.819c236.019,-155.672 527.277,-230.998 873.774,-230.998c205.889,0 391.692,20.087 557.407,55.239c165.716,35.152 326.41,75.325 482.082,115.499l-50.217,733.166l-291.258,-20.087l0,-230.998c0,-35.152 -10.043,-90.39 -35.152,-170.737c-25.108,-80.347 -45.195,-150.651 -60.26,-210.911l130.564,165.716c-95.412,-45.195 -215.933,-80.347 -351.518,-115.499c-140.607,-30.13 -266.149,-45.195 -381.648,-45.195c-241.041,0 -441.908,70.304 -602.602,205.889c-165.716,140.607 -286.236,326.41 -366.583,562.429c-80.347,241.041 -120.52,502.169 -120.52,798.448c0,291.258 40.173,557.407 120.52,793.427c80.347,236.019 200.868,426.843 361.561,567.451c160.694,140.607 361.562,210.911 602.602,210.911c120.521,0 256.106,-15.065 406.757,-45.195c145.629,-25.108 271.171,-60.26 376.627,-105.455l-140.607,170.737c20.087,-50.217 40.174,-105.455 55.239,-160.694c15.065,-55.239 30.13,-105.455 45.195,-150.651c10.043,-45.195 15.065,-80.347 15.065,-105.455l10.043,-236.019l291.258,-10.043l30.13,748.231c-155.672,40.173 -326.41,80.347 -507.19,115.499c-180.781,35.152 -371.605,55.239 -577.494,55.239Z" style="fill:#0f8;fill-rule:nonzero;"/></g></g></svg>